<svg
    xmlns="http://www.w3.org/2000/svg"
    viewBox="0 0 45 43"
    id="vector">
    <path
        id="path"
        d="M 33.25 35.475 C 35.625 35.475 37.55 33.55 37.55 31.175 C 37.55 28.8 35.625 26.875 33.25 26.875 C 30.875 26.875 28.95 28.8 28.95 31.175 C 28.95 33.55 30.875 35.475 33.25 35.475 Z"
        fill="#272343"/>
    <path
        id="path_1"
        d="M 11.75 35.475 C 14.125 35.475 16.05 33.55 16.05 31.175 C 16.05 28.8 14.125 26.875 11.75 26.875 C 9.375 26.875 7.45 28.8 7.45 31.175 C 7.45 33.55 9.375 35.475 11.75 35.475 Z"
        fill="#272343"/>
    <path
        id="path_2"
        d="M 38.894 18.616 L 34.594 18.616 C 32.981 10.436 25.994 4.982 18.737 6.8 C 13.363 8.012 9.063 12.557 7.988 18.616 L 6.106 18.616 C 3.419 18.616 1 21.343 1 24.373 L 1 28.311 C 1 30.432 2.612 32.25 4.494 32.25 L 5.3 32.25 C 5.3 28.311 8.256 24.979 11.75 24.979 C 15.244 24.979 18.2 28.311 18.2 32.25 L 26.8 32.25 C 26.8 28.311 29.756 24.979 33.25 24.979 C 36.744 24.979 39.7 28.311 39.7 32.25 L 40.506 32.25 C 42.388 32.25 44 30.432 44 28.311 L 44 24.676 C 44 21.343 41.581 18.616 38.894 18.616 Z M 12.288 18.616 C 13.631 12.86 19.006 9.83 23.844 11.345 C 26.8 12.254 29.219 14.981 30.294 18.616 L 12.288 18.616 Z"
        fill="#ffd803"/>
</svg>
