<svg
    xmlns="http://www.w3.org/2000/svg"
    viewBox="0 0 16 16"
    id="vector">
    <path
        id="path"
        d="M 8 9.05 L 10.175 11.225 C 10.313 11.363 10.488 11.431 10.7 11.431 C 10.913 11.431 11.087 11.363 11.225 11.225 C 11.363 11.087 11.431 10.913 11.431 10.7 C 11.431 10.488 11.363 10.313 11.225 10.175 L 9.05 8 L 11.225 5.825 C 11.363 5.688 11.431 5.512 11.431 5.3 C 11.431 5.088 11.363 4.912 11.225 4.775 C 11.087 4.637 10.913 4.569 10.7 4.569 C 10.488 4.569 10.313 4.637 10.175 4.775 L 8 6.95 L 5.825 4.775 C 5.688 4.637 5.512 4.569 5.3 4.569 C 5.088 4.569 4.912 4.637 4.775 4.775 C 4.637 4.912 4.569 5.088 4.569 5.3 C 4.569 5.512 4.637 5.688 4.775 5.825 L 6.95 8 L 4.775 10.175 C 4.637 10.313 4.569 10.488 4.569 10.7 C 4.569 10.913 4.637 11.087 4.775 11.225 C 4.912 11.363 5.088 11.431 5.3 11.431 C 5.512 11.431 5.688 11.363 5.825 11.225 L 8 9.05 Z M 8 15.5 C 6.963 15.5 5.988 15.303 5.075 14.909 C 4.162 14.515 3.369 13.981 2.694 13.306 C 2.019 12.632 1.485 11.838 1.091 10.925 C 0.698 10.012 0.501 9.037 0.5 8 C 0.5 6.963 0.697 5.988 1.091 5.075 C 1.485 4.162 2.02 3.368 2.694 2.694 C 3.368 2.019 4.161 1.485 5.075 1.091 C 5.989 0.697 6.964 0.5 8 0.5 C 9.036 0.5 10.012 0.697 10.925 1.091 C 11.839 1.485 12.632 2.019 13.306 2.694 C 13.98 3.368 14.515 4.162 14.91 5.075 C 15.305 5.988 15.502 6.963 15.5 8 C 15.498 9.037 15.302 10.012 14.909 10.925 C 14.517 11.838 13.982 12.632 13.306 13.306 C 12.63 13.981 11.837 14.515 10.925 14.91 C 10.014 15.304 9.038 15.501 8 15.5 Z M 8 14 C 9.675 14 11.094 13.419 12.256 12.256 C 13.419 11.094 14 9.675 14 8 C 14 6.325 13.419 4.906 12.256 3.744 C 11.094 2.581 9.675 2 8 2 C 6.325 2 4.906 2.581 3.744 3.744 C 2.581 4.906 2 6.325 2 8 C 2 9.675 2.581 11.094 3.744 12.256 C 4.906 13.419 6.325 14 8 14 Z"
        fill="#a4a4a4"/>
</svg>
