<svg
    xmlns="http://www.w3.org/2000/svg"
    viewBox="0 0 43 43"
    id="vector">
    <path
        id="path"
        d="M 19.764 22.935 L 10.15 4.852 C 10.095 4.748 10.06 4.634 10.049 4.517 C 10.038 4.4 10.05 4.282 10.084 4.169 C 10.153 3.942 10.31 3.752 10.52 3.64 C 10.73 3.529 10.976 3.505 11.203 3.574 C 11.315 3.609 11.42 3.665 11.511 3.74 C 11.601 3.815 11.677 3.907 11.732 4.011 L 21.347 22.094 L 22.71 21.368 C 23.126 21.147 23.581 21.01 24.049 20.965 C 24.518 20.92 24.991 20.968 25.441 21.106 C 25.891 21.243 26.309 21.468 26.672 21.768 C 27.035 22.067 27.336 22.435 27.557 22.851 L 28.137 23.943 L 34.292 32.95 L 26.464 37.111 L 23.752 31.751 L 22.154 32.56 L 24.882 37.953 L 21.526 39.736 L 17.499 29.597 L 16.92 28.506 C 16.699 28.091 16.562 27.636 16.517 27.167 C 16.471 26.699 16.519 26.226 16.657 25.776 C 16.794 25.326 17.019 24.908 17.319 24.545 C 17.618 24.181 17.986 23.881 18.401 23.66 L 19.764 22.935 Z M 23.551 22.951 L 19.242 25.242 C 19.034 25.352 18.85 25.503 18.7 25.684 C 18.551 25.866 18.438 26.075 18.369 26.3 C 18.301 26.525 18.277 26.761 18.299 26.996 C 18.322 27.23 18.39 27.457 18.501 27.665 L 19.08 28.756 L 26.554 24.782 L 25.974 23.692 C 25.863 23.484 25.713 23.3 25.531 23.151 C 25.35 23.001 25.141 22.889 24.916 22.82 C 24.691 22.751 24.454 22.727 24.22 22.75 C 23.986 22.772 23.758 22.841 23.551 22.951 Z"
        fill="#ffd803"
        fill-rule="evenodd"/>
    <path
        id="path_1"
        d="M 19.764 22.935 C 19.708 22.831 19.674 22.717 19.663 22.6 C 19.652 22.483 19.664 22.365 19.698 22.253 C 19.768 22.025 19.925 21.835 20.134 21.723 C 20.344 21.612 20.59 21.588 20.817 21.658 C 20.929 21.692 21.125 21.823 21.125 21.823 C 21.216 21.898 21.291 21.99 21.346 22.094 L 22.71 21.368 C 23.126 21.147 23.581 21.01 24.049 20.965 C 24.517 20.92 24.99 20.968 25.44 21.106 C 25.89 21.243 26.309 21.468 26.672 21.768 C 27.035 22.067 27.336 22.435 27.556 22.851 L 28.137 23.943 L 34.291 32.95 L 26.464 37.111 L 23.752 31.751 L 22.154 32.56 L 24.882 37.953 L 21.526 39.736 L 17.499 29.597 L 16.919 28.506 C 16.698 28.091 16.561 27.636 16.516 27.167 C 16.471 26.699 16.519 26.226 16.656 25.776 C 16.794 25.326 17.019 24.908 17.318 24.545 C 17.618 24.181 17.986 23.881 18.401 23.66 L 19.764 22.935 Z"
        fill="#272343"
        fill-rule="evenodd"/>
    <path
        id="path_2"
        d="M 19.763 22.935 C 19.708 22.831 19.674 22.718 19.663 22.6 C 19.652 22.483 19.663 22.365 19.698 22.253 C 19.767 22.025 19.924 21.835 20.134 21.723 C 20.344 21.612 20.589 21.588 20.817 21.658 C 20.929 21.692 21.125 21.823 21.125 21.823 C 21.215 21.898 21.29 21.99 21.346 22.094 L 22.71 21.368 C 23.125 21.147 23.58 21.01 24.049 20.965 C 24.517 20.92 24.99 20.968 25.44 21.106 C 25.89 21.243 26.309 21.468 26.672 21.768 C 27.035 22.067 27.335 22.435 27.556 22.851 L 28.137 23.943 L 34.291 32.95 L 26.463 37.111 L 23.751 31.751 L 22.153 32.56 L 24.881 37.953 L 21.525 39.736 L 17.499 29.597 L 16.919 28.506 C 16.698 28.091 16.561 27.636 16.516 27.167 C 16.471 26.699 16.518 26.226 16.656 25.776 C 16.794 25.326 17.018 24.908 17.318 24.545 C 17.617 24.181 17.985 23.881 18.401 23.66 L 19.763 22.935 Z M 23.55 22.951 L 19.241 25.242 C 19.033 25.352 18.849 25.503 18.7 25.684 C 18.55 25.866 18.437 26.075 18.369 26.3 C 18.3 26.525 18.276 26.761 18.299 26.996 C 18.321 27.23 18.39 27.457 18.5 27.665 L 19.08 28.756 L 26.554 24.782 L 25.973 23.692 C 25.863 23.484 25.712 23.3 25.531 23.151 C 25.349 23.001 25.14 22.889 24.915 22.82 C 24.69 22.751 24.454 22.727 24.219 22.75 C 23.985 22.772 23.758 22.841 23.55 22.951 Z"
        fill="#ffd803"
        fill-rule="evenodd"/>
    <path
        id="path_3"
        d="M 15.917 31.677 C 15.765 31.494 15.547 31.379 15.31 31.358 C 15.074 31.336 14.838 31.409 14.656 31.561 L 14.658 31.561 L 14.648 31.568 L 14.592 31.611 C 14.512 31.671 14.43 31.729 14.346 31.785 C 14.124 31.933 13.792 32.134 13.366 32.337 C 12.27 32.864 11.07 33.14 9.854 33.146 C 9.617 33.146 9.389 33.24 9.221 33.408 C 9.053 33.576 8.958 33.804 8.958 34.042 C 8.958 34.279 9.053 34.507 9.221 34.675 C 9.389 34.843 9.617 34.938 9.854 34.938 C 11.337 34.932 12.8 34.596 14.136 33.955 C 14.553 33.757 14.955 33.53 15.34 33.276 C 15.484 33.179 15.625 33.078 15.761 32.971 L 15.788 32.951 L 15.797 32.943 L 15.8 32.94 L 15.802 32.94 L 15.802 32.938 C 15.985 32.786 16.099 32.568 16.121 32.331 C 16.142 32.095 16.069 31.859 15.917 31.677 Z M 17.766 36.232 C 17.831 36.33 17.877 36.44 17.9 36.555 C 17.923 36.671 17.923 36.789 17.899 36.905 C 17.876 37.02 17.831 37.13 17.765 37.228 C 17.7 37.325 17.616 37.409 17.518 37.474 L 17.516 37.476 L 17.513 37.478 L 17.504 37.484 L 17.476 37.501 L 17.374 37.567 C 16.838 37.895 16.28 38.188 15.706 38.444 C 14.647 38.914 13.17 39.417 11.646 39.417 C 11.408 39.417 11.18 39.322 11.012 39.154 C 10.844 38.986 10.75 38.758 10.75 38.521 C 10.75 38.283 10.844 38.055 11.012 37.887 C 11.18 37.719 11.408 37.625 11.646 37.625 C 12.809 37.625 14.02 37.232 14.977 36.806 C 15.477 36.584 15.961 36.33 16.427 36.045 C 16.462 36.024 16.488 36.008 16.504 35.996 L 16.522 35.986 L 16.524 35.984 C 16.622 35.918 16.731 35.873 16.847 35.85 C 16.962 35.827 17.081 35.827 17.196 35.85 C 17.312 35.874 17.421 35.919 17.519 35.985 C 17.617 36.05 17.701 36.134 17.766 36.232 Z"
        fill="#272343"/>
</svg>
