<svg
    xmlns="http://www.w3.org/2000/svg"
    viewBox="0 0 19 19"
    id="vector">
    <path
        id="path"
        d="M 4.341 17.757 C 3.281 17.76 2.419 16.88 2.417 15.791 L 2.398 7.869 C 2.397 7.271 2.661 6.703 3.115 6.329 L 8.385 1.98 C 8.722 1.7 9.146 1.546 9.584 1.545 C 10.022 1.544 10.446 1.696 10.784 1.975 L 16.074 6.299 C 16.53 6.671 16.797 7.238 16.798 7.836 L 16.816 15.758 C 16.819 16.847 15.961 17.731 14.901 17.733 L 4.341 17.757 Z"
        fill="#00000000"
        stroke="#000000"
        stroke-width="1.5"
        stroke-linecap="round"
        stroke-linejoin="round"/>
    <path
        id="path_1"
        d="M 7.371 17.75 L 7.36 12.8 C 7.359 12.323 7.547 11.865 7.884 11.526 C 8.221 11.188 8.678 10.997 9.155 10.996 L 10.055 10.994 C 10.533 10.993 10.991 11.182 11.329 11.519 C 11.668 11.855 11.858 12.313 11.859 12.79 L 11.871 17.74"
        fill="#00000000"
        stroke="#000000"
        stroke-width="1.5"
        stroke-linecap="round"
        stroke-linejoin="round"/>
</svg>
