<svg
    xmlns="http://www.w3.org/2000/svg"
    viewBox="0 0 253 59"
    id="vector">
    <path
        id="path"
        d="M 15.03 10.33 L 12.56 16.59 L 22.05 16.59 C 22.17 24.06 22.77 39.49 22.05 40.69 C 20.91 42.59 19.2 42.59 16.92 42.21 C 14.65 41.83 12.56 38.98 12.56 38.98 L 9.15 42.59 C 9.72 43.41 11.69 45.39 15.03 46.76 C 19.96 48.78 25.27 48.09 28.31 46 C 31.34 43.91 33.05 42.21 33.43 38.98 C 33.81 35.76 33.43 10.33 33.43 10.33 L 15.03 10.33 Z"
        fill="#000000"/>
    <path
        id="path_1"
        d="M 41.59 46.76 L 41.59 10.33 L 62.65 10.33 L 63.97 19.06 L 52.59 19.06 L 52.59 25.89 L 62.65 25.89 L 62.65 33.29 L 52.59 33.29 L 52.59 39.74 L 64.73 39.74 L 63.97 46.76 L 41.59 46.76 Z"
        fill="#000000"/>
    <path
        id="path_2"
        d="M 83.9 46.76 L 72.7 46.76 L 72.7 10.33 L 83.52 10.33 L 83.9 20.39 L 90.91 10.9 L 98.5 10.9 L 90.54 23.05 L 99.64 46.76 L 88.45 46.76 L 83.9 33.29 L 83.9 46.76 Z"
        fill="#000000"/>
    <path
        id="path_3"
        d="M 134.74 19.06 L 130.57 23.05 C 129.49 21.72 127.06 18.23 123.55 17.35 C 120.51 16.59 118.61 16.78 117.47 17.92 C 116.8 18.59 117.1 20.39 119.94 21.91 C 123.7 23.91 128.67 25.7 131.89 29.31 C 136.82 34.81 135.31 41.45 132.27 44.1 C 129.54 46.49 127.72 47.9 121.08 47.9 C 115.77 47.9 114.44 46.76 109.7 43.53 L 106.09 39.74 L 110.64 35.57 C 112.23 37.27 116.57 41.64 120.51 41.64 C 122.6 41.64 123.17 39.74 122.6 38.03 C 122.03 36.33 111.97 32.53 108.75 28.55 C 105.52 24.56 104.51 21.39 107.42 16.59 C 110.64 11.28 115.2 10.79 122.98 11.47 C 128.14 11.93 133.16 16.53 134.74 19.06 Z"
        fill="#ffd803"/>
    <path
        id="path_4"
        d="M 143.09 40.69 C 141.49 37.21 140.49 29.5 140.81 25.89 C 141.38 23.17 141.39 19.14 145.17 14.89 C 148.21 11.47 151.54 9.58 156.94 9.58 C 163.77 9.58 166.99 10.9 170.22 14.89 C 174.39 20.04 175.34 25.51 174.39 35.19 C 173.44 44.86 166.04 49.42 158.45 49.42 C 149.54 49.42 145.17 45.24 143.09 40.69 Z"
        fill="#ffd803"/>
    <path
        id="path_5"
        d="M 181.41 47.9 C 181.47 36.26 181.56 12.57 181.41 10.9 L 202.09 10.9 L 203.42 19.06 L 192.03 19.06 L 192.03 25.89 L 202.09 25.89 L 202.09 33.29 L 192.03 33.29 L 192.03 39.74 L 205.69 39.74 L 203.42 47.9 L 181.41 47.9 Z"
        fill="#ffd803"/>
    <path
        id="path_6"
        d="M 212.15 47.9 L 212.15 10.9 C 217.39 10.9 228.27 9.77 235.67 12.99 C 242.72 16.06 244.97 25.89 243.64 35.57 C 242.57 43.31 234.53 47.71 230.93 47.9 C 227.32 48.09 212.15 47.9 212.15 47.9 Z"
        fill="#ffd803"/>
    <path
        id="path_7"
        d="M 223.91 42.59 L 223.91 16.59 C 233.58 16.97 233.96 21.99 233.96 30.25 C 233.96 37.84 230.55 41.07 223.91 42.59 Z"
        fill="#ffffff"/>
    <path
        id="path_8"
        d="M 152.38 29.12 C 152.69 21.53 155.61 15.65 157.88 15.65 C 160.16 15.65 163.2 23.05 163.2 30.07 C 163.2 37.08 159.02 43.72 157.88 43.72 C 156.75 43.72 152 38.6 152.38 29.12 Z"
        fill="#ffffff"/>
</svg>
