<svg
    xmlns="http://www.w3.org/2000/svg"
    viewBox="0 0 17 18"
    id="vector">
    <path
        id="path"
        d="M 14.798 1.921 L 14.873 1.917 L 14.965 1.922 L 15.029 1.934 L 15.116 1.958 L 15.192 1.991 L 15.262 2.031 L 15.326 2.079 L 15.384 2.132 L 15.421 2.174 L 15.479 2.256 L 15.516 2.324 C 15.549 2.395 15.57 2.469 15.58 2.548 L 15.583 2.623 C 15.583 2.676 15.578 2.728 15.566 2.779 L 15.542 2.866 L 10.915 15.67 C 10.827 15.861 10.686 16.023 10.509 16.136 C 10.333 16.25 10.127 16.31 9.917 16.31 C 9.727 16.31 9.541 16.262 9.376 16.169 C 9.211 16.076 9.073 15.943 8.975 15.781 L 8.929 15.691 L 6.555 10.944 L 1.83 8.581 C 1.656 8.501 1.505 8.376 1.393 8.22 C 1.282 8.063 1.213 7.88 1.194 7.689 L 1.19 7.583 C 1.19 7.187 1.403 6.824 1.786 6.613 L 1.885 6.563 L 14.647 1.955 L 14.722 1.934 L 14.798 1.921 Z"
        fill="#ffd803"/>
</svg>
