<svg
    xmlns="http://www.w3.org/2000/svg"
    viewBox="0 0 21 20"
    id="vector">
    <path
        id="path"
        d="M 6.982 1.359 L 7.011 14.247 M 13.289 4.456 L 13.317 16.899 M 4.512 2.428 L 3.409 3.063 C 2.52 3.575 2.076 3.831 1.833 4.256 C 1.589 4.68 1.59 5.196 1.593 6.228 L 1.609 13.485 C 1.613 14.841 1.614 15.52 1.923 15.896 C 2.129 16.147 2.416 16.315 2.734 16.37 C 3.211 16.453 3.795 16.117 4.962 15.445 C 5.755 14.989 6.517 14.514 7.467 14.641 C 7.899 14.698 8.311 14.899 9.136 15.302 L 12.571 16.979 C 13.315 17.342 13.322 17.344 14.147 17.342 L 16.018 17.338 C 17.716 17.334 18.564 17.332 19.09 16.798 C 19.616 16.265 19.614 15.408 19.61 13.695 L 19.596 7.704 C 19.592 5.991 19.59 5.135 19.062 4.603 C 18.533 4.073 17.685 4.075 15.988 4.079 L 14.117 4.083 C 13.291 4.085 13.284 4.083 12.541 3.721 L 9.54 2.256 C 8.286 1.643 7.659 1.337 6.992 1.359 C 6.325 1.381 5.722 1.731 4.512 2.428 Z"
        fill="#00000000"
        stroke="#000000"
        stroke-width="1.5"
        stroke-linecap="round"
        stroke-linejoin="round"/>
</svg>
