<svg
    xmlns="http://www.w3.org/2000/svg"
    viewBox="0 0 37 37"
    id="vector">
    <path
        id="path"
        d="M 18.5 0 L 18.5 0 C 23.405 0 28.113 1.95 31.581 5.419 C 35.05 8.887 37 13.595 37 18.5 L 37 18.5 C 37 23.405 35.05 28.113 31.581 31.581 C 28.113 35.05 23.405 37 18.5 37 L 18.5 37 C 13.595 37 8.887 35.05 5.419 31.581 C 1.95 28.113 0 23.405 0 18.5 L 0 18.5 C 0 13.595 1.95 8.887 5.419 5.419 C 8.887 1.95 13.595 0 18.5 0 Z"
        fill="#f5fcfc"/>
    <path
        id="path_1"
        d="M 13.5 13.5 M 10 13.5 C 10 12.761 10.234 12.041 10.668 11.443 C 11.103 10.845 11.716 10.4 12.418 10.171 C 13.121 9.943 13.879 9.943 14.582 10.171 C 15.284 10.4 15.897 10.845 16.332 11.443 C 16.766 12.041 17 12.761 17 13.5 C 17 14.239 16.766 14.959 16.332 15.557 C 15.897 16.155 15.284 16.6 14.582 16.829 C 13.879 17.057 13.121 17.057 12.418 16.829 C 11.716 16.6 11.103 16.155 10.668 15.557 C 10.234 14.959 10 14.239 10 13.5"
        fill="#272343"/>
    <path
        id="path_2"
        d="M 23.5 13.5 M 20 13.5 C 20 12.572 20.369 11.681 21.025 11.025 C 21.681 10.369 22.572 10 23.5 10 C 24.428 10 25.319 10.369 25.975 11.025 C 26.631 11.681 27 12.572 27 13.5 C 27 14.428 26.631 15.319 25.975 15.975 C 25.319 16.631 24.428 17 23.5 17 C 22.572 17 21.681 16.631 21.025 15.975 C 20.369 15.319 20 14.428 20 13.5"
        fill="#272343"/>
    <path
        id="path_3"
        d="M 13.5 23.5 M 10 23.5 C 10 22.761 10.234 22.041 10.668 21.443 C 11.103 20.845 11.716 20.4 12.418 20.171 C 13.121 19.943 13.879 19.943 14.582 20.171 C 15.284 20.4 15.897 20.845 16.332 21.443 C 16.766 22.041 17 22.761 17 23.5 C 17 24.239 16.766 24.959 16.332 25.557 C 15.897 26.155 15.284 26.6 14.582 26.829 C 13.879 27.057 13.121 27.057 12.418 26.829 C 11.716 26.6 11.103 26.155 10.668 25.557 C 10.234 24.959 10 24.239 10 23.5"
        fill="#272343"/>
    <path
        id="path_4"
        d="M 23.5 23.5 M 20 23.5 C 20 22.572 20.369 21.681 21.025 21.025 C 21.681 20.369 22.572 20 23.5 20 C 24.428 20 25.319 20.369 25.975 21.025 C 26.631 21.681 27 22.572 27 23.5 C 27 24.428 26.631 25.319 25.975 25.975 C 25.319 26.631 24.428 27 23.5 27 C 22.572 27 21.681 26.631 21.025 25.975 C 20.369 25.319 20 24.428 20 23.5"
        fill="#272343"/>
</svg>
