<svg
    xmlns="http://www.w3.org/2000/svg"
    viewBox="0 0 45 43"
    id="vector">
    <path
        id="path"
        d="M 27.107 6.45 L 31.714 6.45 C 32.529 6.45 33.31 6.774 33.886 7.35 C 34.462 7.926 34.786 8.707 34.786 9.521 L 34.786 23.665 C 31.23 24.685 28.643 27.999 28.643 31.852 C 28.643 32.841 29.294 33.704 30.209 33.992 L 30.222 34.093 L 16.861 34.093 C 17.972 33.195 18.778 31.974 19.167 30.599 C 19.556 29.224 19.509 27.762 19.033 26.415 C 18.556 25.067 17.674 23.901 16.507 23.076 C 15.341 22.25 13.947 21.807 12.518 21.807 L 6.243 21.807 C 5.483 21.807 4.753 21.931 4.071 22.162 L 4.071 21.807 C 4.071 20.585 4.557 19.413 5.421 18.549 C 6.285 17.685 7.457 17.2 8.679 17.2 L 24.804 17.2 C 25.007 17.2 25.202 17.281 25.347 17.425 C 25.49 17.569 25.571 17.764 25.571 17.968 L 25.571 20.271 C 25.571 21.086 25.248 21.867 24.672 22.443 C 24.096 23.019 23.315 23.343 22.5 23.343 L 21.732 23.343 C 21.121 23.343 20.535 23.586 20.103 24.018 C 19.671 24.45 19.429 25.035 19.429 25.646 C 19.429 26.257 19.671 26.843 20.103 27.275 C 20.535 27.707 21.121 27.95 21.732 27.95 L 27.618 27.95 C 27.89 27.95 28.151 27.842 28.343 27.65 C 28.535 27.458 28.643 27.197 28.643 26.926 L 28.643 9.521 L 27.107 9.521 C 26.7 9.521 26.309 9.36 26.021 9.072 C 25.733 8.784 25.571 8.393 25.571 7.986 C 25.571 7.578 25.733 7.188 26.021 6.9 C 26.309 6.612 26.7 6.45 27.107 6.45 Z"
        fill="#ffd803"/>
    <path
        id="path_1"
        d="M 23.011 12.593 C 24.424 12.593 25.571 13.738 25.571 15.153 C 25.571 15.436 25.341 15.664 25.06 15.664 L 12.261 15.664 C 11.979 15.664 11.75 15.434 11.75 15.153 C 11.75 13.74 12.896 12.593 14.31 12.593 L 23.011 12.593 Z M 31.714 33.325 C 31.716 34.063 31.869 34.792 32.164 35.467 C 32.459 36.143 32.89 36.751 33.431 37.253 C 33.971 37.755 34.609 38.14 35.304 38.385 C 36 38.63 36.739 38.729 37.474 38.676 C 38.21 38.624 38.927 38.42 39.58 38.078 C 40.234 37.737 40.81 37.264 41.273 36.69 C 41.736 36.116 42.076 35.453 42.271 34.742 C 42.467 34.031 42.515 33.287 42.41 32.557 L 43.301 32.557 C 43.487 32.555 43.665 32.48 43.795 32.348 C 43.926 32.216 44 32.038 44 31.852 C 44 28.036 40.905 24.879 37.089 24.879 C 33.273 24.879 30.179 28.036 30.179 31.852 C 30.179 32.038 30.252 32.216 30.383 32.348 C 30.513 32.479 30.69 32.555 30.876 32.557 L 31.768 32.557 C 31.732 32.808 31.714 33.064 31.714 33.325 Z M 39.262 32.557 C 39.384 32.904 39.422 33.276 39.371 33.641 C 39.32 34.005 39.182 34.353 38.969 34.653 C 38.756 34.953 38.474 35.199 38.147 35.368 C 37.82 35.537 37.458 35.625 37.089 35.625 C 36.721 35.625 36.358 35.537 36.031 35.368 C 35.704 35.199 35.422 34.953 35.209 34.653 C 34.997 34.353 34.859 34.005 34.808 33.641 C 34.757 33.276 34.794 32.904 34.916 32.557 L 39.262 32.557 Z M 2.589 34.093 C 2.775 35.376 3.419 36.549 4.401 37.395 C 5.383 38.241 6.638 38.704 7.934 38.698 C 9.231 38.693 10.482 38.218 11.456 37.363 C 12.431 36.508 13.064 35.33 13.238 34.045 C 14.59 33.864 15.823 33.176 16.686 32.119 C 17.549 31.063 17.979 29.718 17.887 28.357 C 17.796 26.996 17.19 25.721 16.193 24.789 C 15.196 23.858 13.882 23.341 12.518 23.343 L 6.243 23.343 C 4.852 23.343 3.519 23.895 2.536 24.878 C 1.552 25.862 1 27.195 1 28.586 L 1 32.557 C 1 32.964 1.162 33.355 1.45 33.643 C 1.738 33.931 2.128 34.093 2.536 34.093 L 2.589 34.093 Z M 10.084 34.093 C 9.925 34.543 9.631 34.932 9.242 35.208 C 8.853 35.484 8.388 35.632 7.911 35.632 C 7.434 35.632 6.969 35.484 6.579 35.208 C 6.19 34.932 5.896 34.543 5.738 34.093 L 10.084 34.093 Z"
        fill="#272343"/>
</svg>
