<svg
    xmlns="http://www.w3.org/2000/svg"
    viewBox="0 0 17 19"
    id="vector">
    <path
        id="path"
        d="M 1.7 7.922 C 1.7 4.099 4.745 1 8.5 1 C 12.255 1 15.3 4.099 15.3 7.922 C 15.3 11.715 13.13 16.141 9.744 17.723 C 9.354 17.906 8.93 18 8.5 18 C 8.07 18 7.646 17.906 7.257 17.723 C 3.87 16.14 1.7 11.715 1.7 7.922 Z"
        fill="#d32f2f"
        stroke="#d32f2f"
        stroke-width="1.5"/>
    <path
        id="path_1"
        d="M 8.5 10.35 C 9.908 10.35 11.05 9.209 11.05 7.8 C 11.05 6.392 9.908 5.25 8.5 5.25 C 7.092 5.25 5.95 6.392 5.95 7.8 C 5.95 9.209 7.092 10.35 8.5 10.35 Z"
        fill="#ffffff"
        stroke="#ffffff"
        stroke-width="1.5"/>
</svg>
