<svg
    xmlns="http://www.w3.org/2000/svg"
    viewBox="0 0 24 24"
    id="vector">
    <path
        id="path"
        d="M 12 12 C 11.717 12 11.479 11.904 11.288 11.712 C 11.097 11.52 11.001 11.283 11 11 L 11 3 C 11 2.717 11.096 2.479 11.288 2.288 C 11.48 2.097 11.717 2.001 12 2 C 12.283 1.999 12.52 2.095 12.713 2.288 C 12.906 2.481 13.001 2.718 13 3 L 13 11 C 13 11.283 12.904 11.521 12.712 11.713 C 12.52 11.905 12.283 12.001 12 12 Z M 12 21 C 10.75 21 9.579 20.763 8.488 20.288 C 7.397 19.813 6.447 19.172 5.638 18.363 C 4.829 17.554 4.188 16.604 3.713 15.513 C 3.238 14.422 3.001 13.251 3 12 C 3 10.983 3.167 9.996 3.5 9.037 C 3.833 8.078 4.317 7.199 4.95 6.4 C 5.133 6.167 5.367 6.054 5.65 6.063 C 5.933 6.072 6.183 6.184 6.4 6.4 C 6.583 6.583 6.667 6.808 6.65 7.075 C 6.633 7.342 6.542 7.592 6.375 7.825 C 5.925 8.425 5.583 9.083 5.35 9.8 C 5.117 10.517 5 11.25 5 12 C 5 13.95 5.679 15.604 7.038 16.963 C 8.397 18.322 10.051 19.001 12 19 C 13.949 18.999 15.604 18.32 16.963 16.963 C 18.322 15.606 19.001 13.951 19 12 C 19 11.233 18.888 10.487 18.663 9.762 C 18.438 9.037 18.084 8.374 17.6 7.775 C 17.433 7.558 17.342 7.321 17.325 7.063 C 17.308 6.805 17.392 6.584 17.575 6.4 C 17.775 6.2 18.017 6.096 18.3 6.088 C 18.583 6.08 18.817 6.184 19 6.4 C 19.65 7.2 20.146 8.075 20.488 9.025 C 20.83 9.975 21.001 10.967 21 12 C 21 13.25 20.763 14.421 20.288 15.513 C 19.813 16.605 19.172 17.555 18.363 18.363 C 17.554 19.171 16.604 19.813 15.513 20.288 C 14.422 20.763 13.251 21.001 12 21 Z"
        fill="#272343"/>
</svg>
