<svg
    xmlns="http://www.w3.org/2000/svg"
    viewBox="0 0 20 20"
    id="vector">
    <path
        id="path"
        d="M 1.614 15.246 C 1.611 14.172 2.036 13.141 2.793 12.38 C 3.551 11.618 4.58 11.189 5.654 11.187 L 13.755 11.168 C 14.829 11.166 15.86 11.59 16.621 12.348 C 17.382 13.106 17.811 14.135 17.814 15.209 C 17.815 15.746 17.603 16.261 17.224 16.642 C 16.845 17.023 16.33 17.237 15.793 17.239 L 3.644 17.267 C 3.106 17.268 2.591 17.056 2.21 16.677 C 1.83 16.298 1.615 15.783 1.614 15.246 Z"
        fill="#00000000"
        stroke="#000000"
        stroke-width="1.5"
        stroke-linejoin="round"/>
    <path
        id="path_1"
        d="M 9.695 7.128 C 11.373 7.124 12.729 5.761 12.726 4.083 C 12.722 2.405 11.359 1.049 9.681 1.053 C 8.003 1.056 6.647 2.42 6.651 4.097 C 6.654 5.775 8.017 7.131 9.695 7.128 Z"
        fill="#00000000"
        stroke="#000000"
        stroke-width="1.5"/>
</svg>
